# xmcd
#
# Track frame offsets:
#	150
#	12055
#	23005
#	35245
#	48130
#	60827
#	71705
#	83947
#	96372
#	109802
#	125307
#	138890
#	153282
#	167062
#	176552
#	192795
#	205047
#	214757
#	224057
#	235807
#	246135
#	258427
#	272392
#	284627
#
# Disc length: 3919 seconds
#
# Revision: 1
# Processed by: cddbd v1.5.1PL2 Copyright (c) Steve Scherf et al.
# Submitted via: audiograbber 1.81.02
#
DISCID=530f4d18
DTITLE=Esther Phillips - And I Love Him!
DYEAR=1900
DGENRE=Blues
TTITLE0=And I Love Him
TTITLE1='Tis Autumn
TTITLE2=Shangri-la
TTITLE3=Moonglow and Theme From Picnic
TTITLE4=Out of the Blue
TTITLE5=People
TTITLE6=Makin' Whoopee
TTITLE7=Girl From Ipanema
TTITLE8=I Wish You Love
TTITLE9=If You Love Me, Really Love Me
TTITLE10=Too Soon To Know
TTITLE11=Make Believe Dreams
TTITLE12=It's All Right With Me
TTITLE13=The Shadow of Your Smile
TTITLE14=Crazy He Calls Me
TTITLE15=He Touched Me
TTITLE16=A Taste of Honey
TTITLE17=Let There Be Love
TTITLE18=You Can't Go Home Again
TTITLE19=Just Say Goodbye
TTITLE20=I Could Have Told You So
TTITLE21=Every Time We Say Goodbye
TTITLE22=As Tears Go By
TTITLE23=The Party's Over
EXTD=
EXTT0=
EXTT1=
EXTT2=
EXTT3=
EXTT4=
EXTT5=
EXTT6=
EXTT7=
EXTT8=
EXTT9=
EXTT10=
EXTT11=
EXTT12=
EXTT13=
EXTT14=
EXTT15=
EXTT16=
EXTT17=
EXTT18=
EXTT19=
EXTT20=
EXTT21=
EXTT22=
EXTT23=
PLAYORDER=
